<?xml version="1.0" standalone="no"?>
<!DOCTYPE svg PUBLIC "-//W3C//DTD SVG 20010904//EN"
 "http://www.w3.org/TR/2001/REC-SVG-20010904/DTD/svg10.dtd">
<svg version="1.0" xmlns="http://www.w3.org/2000/svg"
 width="500.000000pt" height="500.000000pt" viewBox="0 0 500.000000 500.000000"
 preserveAspectRatio="xMidYMid meet">

<g transform="translate(0.000000,500.000000) scale(0.100000,-0.100000)"
fill="#000000" stroke="none">
<path d="M2215 4905 c-935 -114 -1713 -748 -2011 -1640 -393 -1177 172 -2466
1306 -2975 1063 -477 2339 -117 2988 844 278 410 422 877 422 1366 0 1232
-919 2261 -2148 2405 -153 18 -407 18 -557 0z m-107 -1502 c13 -15 211 -354
441 -751 229 -398 420 -724 425 -724 5 0 130 210 278 466 l269 466 -28 58
c-25 51 -28 68 -28 157 0 95 2 103 34 163 39 71 78 110 154 150 47 24 62 27
152 27 91 0 105 -3 158 -29 99 -51 163 -136 187 -249 31 -154 -54 -314 -205
-384 -51 -24 -73 -28 -146 -27 l-86 0 -305 -531 c-168 -291 -313 -545 -322
-563 -38 -76 -144 -95 -194 -35 -13 15 -211 354 -440 752 -230 398 -421 723
-427 722 -5 -1 -131 -211 -278 -467 l-268 -464 28 -58 c25 -51 28 -67 28 -157
0 -90 -3 -105 -28 -152 -39 -75 -78 -115 -149 -154 -60 -32 -68 -34 -163 -34
-91 0 -105 3 -158 29 -99 51 -163 136 -187 249 -31 154 54 314 205 384 51 24
73 28 146 27 l86 0 305 531 c168 291 313 545 322 563 38 76 144 95 194 35z"/>
<path d="M3762 3165 c-38 -17 -67 -74 -57 -113 11 -43 59 -82 100 -82 45 0
105 53 105 93 0 83 -75 134 -148 102z"/>
<path d="M1123 1995 c-32 -32 -35 -40 -30 -76 6 -48 28 -74 72 -89 49 -16 101
8 121 56 19 45 12 78 -26 115 -42 42 -91 40 -137 -6z"/>
</g>
</svg>
